<?xml version="1.0" encoding="iso-8859-1"?>
<!-- Uploaded to: SVG Repo, www.svgrepo.com, Generator: SVG Repo Mixer Tools -->
<!DOCTYPE svg PUBLIC "-//W3C//DTD SVG 1.1//EN" "http://www.w3.org/Graphics/SVG/1.1/DTD/svg11.dtd">
<svg fill="#000000" height="800px" width="800px" version="1.1" id="Capa_1" xmlns="http://www.w3.org/2000/svg" xmlns:xlink="http://www.w3.org/1999/xlink" 
	 viewBox="0 0 460.538 460.538" xml:space="preserve">
<g>
	<g>
		<path d="M230.269,419.791c-10.02,0-19.302-3.105-24.829-8.307c-2.011-1.892-2.107-5.057-0.214-7.068
			c1.892-2.011,5.057-2.108,7.068-0.214c3.663,3.448,10.551,5.589,17.976,5.589s14.311-2.142,17.973-5.589
			c2.01-1.893,5.175-1.797,7.068,0.213c1.893,2.011,1.797,5.175-0.213,7.068C249.571,416.686,240.289,419.791,230.269,419.791z"/>
	</g>
	<path d="M404.976,314.359h-41.457c-4.954-13.782-14.183-26.592-27.218-37.647h39.255c6.438,0,11.676,5.237,11.676,11.675v11.094
		c0,2.761,2.239,5,5,5s5-2.239,5-5v-11.094c0-11.952-9.724-21.675-21.676-21.675h-52.872
		c-24.094-15.386-54.772-24.156-87.415-24.969V5c0-2.761-2.239-5-5-5c-2.762,0-5,2.239-5,5v236.744
		c-32.643,0.814-63.32,9.583-87.414,24.969H84.981c-11.952,0-21.675,9.724-21.675,21.675v11.094c0,2.761,2.239,5,5,5s5-2.239,5-5
		v-11.094c0-6.438,5.237-11.675,11.675-11.675h39.256c-13.036,11.055-22.265,23.865-27.219,37.647H55.562
		c-11.952,0-21.676,9.723-21.676,21.675v14.741c0,2.761,2.239,5,5,5s5-2.239,5-5v-14.741c0-6.438,5.238-11.675,11.676-11.675h38.656
		c-0.938,4.603-1.421,9.286-1.421,14.026c0,6.78,0.983,13.445,2.887,19.919H63.294c-11.952,0-21.675,9.723-21.675,21.675v27.863
		c0,2.761,2.239,5,5,5s5-2.239,5-5V379.98c0-6.438,5.237-11.675,11.675-11.675h36.139c4.194,9.157,10.325,17.814,18.251,25.725
		H96.523c-11.952,0-21.675,9.724-21.675,21.675v39.832c0,2.761,2.239,5,5,5s5-2.239,5-5v-39.832c0-6.483,5.237-11.675,11.675-11.675
		h32.664c1.481,1.126,3.001,2.233,4.565,3.316c25.849,17.895,60.126,27.75,96.517,27.75c36.392,0,70.669-9.855,96.518-27.75
		c1.565-1.083,3.084-2.19,4.565-3.316h32.662c6.438,0,11.675,5.237,11.675,11.675v39.832c0,2.761,2.239,5,5,5c2.761,0,5-2.239,5-5
		v-39.832c0-11.952-9.723-21.675-21.675-21.675h-21.16c7.926-7.911,14.057-16.568,18.25-25.725h36.139
		c6.438,0,11.675,5.237,11.675,11.675v27.863c0,2.761,2.239,5,5,5s5-2.239,5-5V379.98c0-11.952-9.723-21.675-21.675-21.675h-32.391
		c1.903-6.475,2.887-13.139,2.887-19.919c0-4.74-0.483-9.424-1.421-14.026h38.657c6.438,0,11.675,5.237,11.675,11.675v14.741
		c0,2.761,2.239,5,5,5c2.761,0,5-2.239,5-5v-14.741C426.651,324.083,416.928,314.359,404.976,314.359z M102.798,338.386
		c0-47.813,57.184-86.711,127.472-86.711s127.471,38.898,127.471,86.711c0,47.812-57.183,86.71-127.471,86.71
		S102.798,386.198,102.798,338.386z"/>
	<g>
		<g>
			<g>
				<path d="M192.599,370.888c-1.31,0-2.6-0.53-3.53-1.46c-0.93-0.93-1.47-2.22-1.47-3.54c0-1.31,0.54-2.6,1.47-3.53
					c0.93-0.93,2.22-1.47,3.53-1.47c1.32,0,2.61,0.54,3.54,1.47c0.93,0.93,1.46,2.22,1.46,3.53c0,1.32-0.53,2.61-1.46,3.54
					C195.209,370.358,193.919,370.888,192.599,370.888z"/>
			</g>
			<g>
				<path d="M192.604,394.355c-15.694,0-28.463-12.769-28.463-28.463c0-15.694,12.768-28.463,28.463-28.463
					c15.695,0,28.464,12.768,28.464,28.463C221.068,381.586,208.299,394.355,192.604,394.355z M192.604,347.429
					c-10.181,0-18.463,8.282-18.463,18.463c0,10.181,8.282,18.463,18.463,18.463c10.181,0,18.464-8.283,18.464-18.463
					C211.068,355.711,202.785,347.429,192.604,347.429z"/>
			</g>
		</g>
		<g>
			<g>
				<path d="M267.929,370.888c-1.31,0-2.6-0.53-3.53-1.46c-0.93-0.93-1.47-2.22-1.47-3.54c0-1.31,0.54-2.6,1.47-3.53
					c0.93-0.93,2.22-1.47,3.53-1.47c1.32,0,2.61,0.54,3.54,1.47c0.93,0.93,1.46,2.22,1.46,3.53c0,1.32-0.53,2.61-1.46,3.54
					C270.539,370.358,269.249,370.888,267.929,370.888z"/>
			</g>
			<g>
				<path d="M267.932,394.355c-15.694,0-28.463-12.769-28.463-28.463c0-15.694,12.769-28.463,28.463-28.463
					c15.695,0,28.464,12.768,28.464,28.463C296.396,381.586,283.627,394.355,267.932,394.355z M267.932,347.429
					c-10.181,0-18.463,8.282-18.463,18.463c0,10.181,8.282,18.463,18.463,18.463c10.181,0,18.464-8.283,18.464-18.463
					C286.396,355.711,278.113,347.429,267.932,347.429z"/>
			</g>
		</g>
	</g>
</g>
</svg>