<?xml version="1.0" encoding="iso-8859-1"?>
<!-- Uploaded to: SVG Repo, www.svgrepo.com, Generator: SVG Repo Mixer Tools -->
<svg height="800px" width="800px" version="1.1" id="Layer_1" xmlns="http://www.w3.org/2000/svg" xmlns:xlink="http://www.w3.org/1999/xlink" 
	 viewBox="0 0 512 512" xml:space="preserve">
<g transform="translate(1 1)">
	<g>
		<path style="fill:#FFE100;" d="M148.333,408.6c-5.12,0-8.533-3.413-8.533-8.533v-307.2C139.8,40.813,181.613-1,233.667-1
			c5.12,0,8.533,3.413,8.533,8.533s-3.413,8.533-8.533,8.533c-42.667,0-76.8,34.133-76.8,76.8v307.2
			C156.867,405.187,153.453,408.6,148.333,408.6z"/>
		<path style="fill:#FFE100;" d="M412.867,16.067h-179.2c-5.12,0-8.533-3.413-8.533-8.533S228.547-1,233.667-1h179.2
			c5.12,0,8.533,3.413,8.533,8.533S417.987,16.067,412.867,16.067z"/>
		<path style="fill:#FFE100;" d="M182.467,502.467H97.133v-23.04c0-5.973,5.12-11.093,11.093-11.093h63.147
			c5.973,0,11.093,5.12,11.093,11.093V502.467z"/>
		<path style="fill:#FFE100;" d="M165.4,468.333h-51.2V411.16c0-5.973,5.12-11.093,11.093-11.093h29.013
			c5.973,0,11.093,5.12,11.093,11.093V468.333z"/>
	</g>
	<path style="fill:#FECC00;" d="M293.4,41.667h34.133V7.533H293.4V41.667z"/>
	<g>
		<path style="fill:#FFE100;" d="M250.733,135.533c-5.12,0-8.533-3.413-8.533-8.533c0-14.507-11.093-25.6-25.6-25.6
			c-5.12,0-8.533-3.413-8.533-8.533s3.413-8.533,8.533-8.533c23.893,0,42.667,18.773,42.667,42.667
			C259.267,132.12,255.853,135.533,250.733,135.533z"/>
		<path style="fill:#FFE100;" d="M250.733,220.867c-5.12,0-8.533-3.413-8.533-8.533c0-14.507-11.093-25.6-25.6-25.6
			c-5.12,0-8.533-3.413-8.533-8.533c0-5.12,3.413-8.533,8.533-8.533c23.893,0,42.667,18.773,42.667,42.667
			C259.267,217.453,255.853,220.867,250.733,220.867z"/>
		<path style="fill:#FFE100;" d="M250.733,306.2c-5.12,0-8.533-3.413-8.533-8.533c0-14.507-11.093-25.6-25.6-25.6
			c-5.12,0-8.533-3.413-8.533-8.533c0-5.12,3.413-8.533,8.533-8.533c23.893,0,42.667,18.773,42.667,42.667
			C259.267,302.787,255.853,306.2,250.733,306.2z"/>
		<path style="fill:#FFE100;" d="M370.2,135.533c-5.12,0-8.533-3.413-8.533-8.533c0-23.893,18.773-42.667,42.667-42.667
			c5.12,0,8.533,3.413,8.533,8.533s-3.413,8.533-8.533,8.533c-14.507,0-25.6,11.093-25.6,25.6
			C378.733,132.12,375.32,135.533,370.2,135.533z"/>
		<path style="fill:#FFE100;" d="M370.2,220.867c-5.12,0-8.533-3.413-8.533-8.533c0-23.893,18.773-42.667,42.667-42.667
			c5.12,0,8.533,3.413,8.533,8.533c0,5.12-3.413,8.533-8.533,8.533c-14.507,0-25.6,11.093-25.6,25.6
			C378.733,217.453,375.32,220.867,370.2,220.867z"/>
		<path style="fill:#FFE100;" d="M370.2,306.2c-5.12,0-8.533-3.413-8.533-8.533c0-23.893,18.773-42.667,42.667-42.667
			c5.12,0,8.533,3.413,8.533,8.533c0,5.12-3.413,8.533-8.533,8.533c-14.507,0-25.6,11.093-25.6,25.6
			C378.733,302.787,375.32,306.2,370.2,306.2z"/>
		<path style="fill:#FFE100;" d="M342.04,331.8h-63.147c-5.973,0-11.093-5.12-11.093-11.093V52.76
			c0-5.973,5.12-11.093,11.093-11.093h63.147c5.973,0,11.093,5.12,11.093,11.093v267.947C353.133,326.68,348.013,331.8,342.04,331.8
			"/>
	</g>
	<path style="fill:#FFFFFF;" d="M267.8,320.707V52.76c0-5.973,5.12-11.093,11.093-11.093h-17.067
		c-5.973,0-11.093,5.12-11.093,11.093v267.947c0,5.973,5.12,11.093,11.093,11.093h17.067C272.92,331.8,267.8,326.68,267.8,320.707"
		/>
	<path style="fill:#FFA800;" d="M359.107,41.667H342.04c5.973,0,11.093,5.12,11.093,11.093v267.947
		c0,5.973-5.12,11.093-11.093,11.093h17.067c5.973,0,11.093-5.12,11.093-11.093V52.76C370.2,46.787,365.08,41.667,359.107,41.667"/>
	<path style="fill:#63D3FD;" d="M336.067,272.067c0,14.507-11.093,25.6-25.6,25.6c-14.507,0-25.6-11.093-25.6-25.6
		s11.093-25.6,25.6-25.6C324.973,246.467,336.067,257.56,336.067,272.067"/>
	<path style="fill:#FFA800;" d="M336.067,186.733c0,14.507-11.093,25.6-25.6,25.6c-14.507,0-25.6-11.093-25.6-25.6
		c0-14.507,11.093-25.6,25.6-25.6C324.973,161.133,336.067,172.227,336.067,186.733"/>
	<path style="fill:#E4667F;" d="M336.067,101.4c0,14.507-11.093,25.6-25.6,25.6c-14.507,0-25.6-11.093-25.6-25.6
		s11.093-25.6,25.6-25.6C324.973,75.8,336.067,86.893,336.067,101.4"/>
	<path d="M191,511H88.6v-31.573c0-11.093,8.533-19.627,19.627-19.627h63.147c11.093,0,19.627,8.533,19.627,19.627V511z
		 M105.667,493.933h68.267v-14.507c0-1.707-0.853-2.56-2.56-2.56h-63.147c-1.707,0-2.56,0.853-2.56,2.56V493.933z"/>
	<path d="M173.933,476.867h-68.267V411.16c0-11.093,8.533-19.627,19.627-19.627h29.013c11.093,0,19.627,8.533,19.627,19.627V476.867
		z M122.733,459.8h34.133v-48.64c0-1.707-0.853-2.56-2.56-2.56h-29.013c-1.707,0-2.56,0.853-2.56,2.56V459.8z"/>
	<path d="M148.333,400.067h-17.067v-307.2C131.267,40.813,173.08-1,225.133-1v17.067c-42.667,0-76.8,34.133-76.8,76.8V400.067z"/>
	<path d="M404.333,16.067h-179.2c-5.12,0-8.533-3.413-8.533-8.533S220.013-1,225.133-1h179.2c5.12,0,8.533,3.413,8.533,8.533
		S409.453,16.067,404.333,16.067z"/>
	<path d="M336.067,50.2h-51.2V-1h51.2V50.2z M301.933,33.133H319V16.067h-17.067V33.133z"/>
	<path d="M359.107,340.333h-97.28c-11.093,0-19.627-8.533-19.627-19.627V52.76c0-11.093,8.533-19.627,19.627-19.627h97.28
		c11.093,0,19.627,8.533,19.627,19.627v267.947C378.733,331.8,370.2,340.333,359.107,340.333z M261.827,50.2
		c-1.707,0-2.56,0.853-2.56,2.56v267.947c0,1.707,0.853,2.56,2.56,2.56h97.28c1.707,0,2.56-0.853,2.56-2.56V52.76
		c0-1.707-0.853-2.56-2.56-2.56H261.827z"/>
	<path d="M250.733,127c-5.12,0-8.533-3.413-8.533-8.533c0-14.507-11.093-25.6-25.6-25.6c-5.12,0-8.533-3.413-8.533-8.533
		S211.48,75.8,216.6,75.8c23.893,0,42.667,18.773,42.667,42.667C259.267,123.587,255.853,127,250.733,127z"/>
	<path d="M250.733,212.333c-5.12,0-8.533-3.413-8.533-8.533c0-14.507-11.093-25.6-25.6-25.6c-5.12,0-8.533-3.413-8.533-8.533
		c0-5.12,3.413-8.533,8.533-8.533c23.893,0,42.667,18.773,42.667,42.667C259.267,208.92,255.853,212.333,250.733,212.333z"/>
	<path d="M250.733,297.667c-5.12,0-8.533-3.413-8.533-8.533c0-14.507-11.093-25.6-25.6-25.6c-5.12,0-8.533-3.413-8.533-8.533
		s3.413-8.533,8.533-8.533c23.893,0,42.667,18.773,42.667,42.667C259.267,294.253,255.853,297.667,250.733,297.667z"/>
	<path d="M310.467,135.533c-18.773,0-34.133-15.36-34.133-34.133s15.36-34.133,34.133-34.133S344.6,82.627,344.6,101.4
		S329.24,135.533,310.467,135.533z M310.467,84.333c-9.387,0-17.067,7.68-17.067,17.067s7.68,17.067,17.067,17.067
		c9.387,0,17.067-7.68,17.067-17.067S319.853,84.333,310.467,84.333z"/>
	<path d="M310.467,220.867c-18.773,0-34.133-15.36-34.133-34.133s15.36-34.133,34.133-34.133s34.133,15.36,34.133,34.133
		S329.24,220.867,310.467,220.867z M310.467,169.667c-9.387,0-17.067,7.68-17.067,17.067c0,9.387,7.68,17.067,17.067,17.067
		c9.387,0,17.067-7.68,17.067-17.067C327.533,177.347,319.853,169.667,310.467,169.667z"/>
	<path d="M310.467,306.2c-18.773,0-34.133-15.36-34.133-34.133s15.36-34.133,34.133-34.133s34.133,15.36,34.133,34.133
		S329.24,306.2,310.467,306.2z M310.467,255c-9.387,0-17.067,7.68-17.067,17.067s7.68,17.067,17.067,17.067
		c9.387,0,17.067-7.68,17.067-17.067S319.853,255,310.467,255z"/>
	<path d="M370.2,127c-5.12,0-8.533-3.413-8.533-8.533c0-23.893,18.773-42.667,42.667-42.667c5.12,0,8.533,3.413,8.533,8.533
		s-3.413,8.533-8.533,8.533c-14.507,0-25.6,11.093-25.6,25.6C378.733,123.587,375.32,127,370.2,127z"/>
	<path d="M370.2,212.333c-5.12,0-8.533-3.413-8.533-8.533c0-23.893,18.773-42.667,42.667-42.667c5.12,0,8.533,3.413,8.533,8.533
		c0,5.12-3.413,8.533-8.533,8.533c-14.507,0-25.6,11.093-25.6,25.6C378.733,208.92,375.32,212.333,370.2,212.333z"/>
	<path d="M370.2,297.667c-5.12,0-8.533-3.413-8.533-8.533c0-23.893,18.773-42.667,42.667-42.667c5.12,0,8.533,3.413,8.533,8.533
		s-3.413,8.533-8.533,8.533c-14.507,0-25.6,11.093-25.6,25.6C378.733,294.253,375.32,297.667,370.2,297.667z"/>
	<path style="fill:#FFFFFF;" d="M192.707,126.147c27.307,0,27.307-42.667,0-42.667C164.547,83.48,164.547,126.147,192.707,126.147"
		/>
</g>
</svg>