<?xml version="1.0" encoding="iso-8859-1"?>
<!-- Uploaded to: SVG Repo, www.svgrepo.com, Generator: SVG Repo Mixer Tools -->
<svg height="800px" width="800px" version="1.1" id="Layer_1" xmlns="http://www.w3.org/2000/svg" xmlns:xlink="http://www.w3.org/1999/xlink" 
	 viewBox="0 0 512 512" xml:space="preserve">
<g transform="translate(1 1)">
	<path style="fill:#FFE100;" d="M237.933,502.467h34.133V459.8h-34.133V502.467z"/>
	<path style="fill:#FFA800;" d="M272.067,502.467h17.067V459.8h-17.067V502.467z"/>
	<path style="fill:#FFFFFF;" d="M220.867,502.467h17.067V459.8h-17.067V502.467z"/>
	<path style="fill:#FFE100;" d="M272.067,459.8h-34.133c-4.267,0-8.533-3.413-8.533-8.533v-51.2h51.2v51.2
		C280.6,456.387,277.187,459.8,272.067,459.8"/>
	<path style="fill:#FFA800;" d="M280.6,400.067v51.2c0,4.267-3.413,8.533-8.533,8.533h25.6c4.267,0,8.533-3.413,8.533-8.533v-51.2
		H280.6z"/>
	<path style="fill:#FFFFFF;" d="M229.4,451.267v-51.2h-25.6v51.2c0,4.267,3.413,8.533,8.533,8.533h25.6
		C232.813,459.8,229.4,456.387,229.4,451.267"/>
	<g>
		<path style="fill:#FFE100;" d="M135.533,144.067c-5.12,0-8.533-3.413-8.533-8.533c0-37.547-30.72-68.267-68.267-68.267
			c-5.12,0-8.533-3.413-8.533-8.533s3.413-8.533,8.533-8.533c46.933,0,85.333,38.4,85.333,85.333
			C144.067,140.653,140.653,144.067,135.533,144.067z"/>
		<path style="fill:#FFE100;" d="M135.533,263.533c-5.12,0-8.533-3.413-8.533-8.533c0-37.547-30.72-68.267-68.267-68.267
			c-5.12,0-8.533-3.413-8.533-8.533c0-5.12,3.413-8.533,8.533-8.533c46.933,0,85.333,38.4,85.333,85.333
			C144.067,260.12,140.653,263.533,135.533,263.533z"/>
		<path style="fill:#FFE100;" d="M135.533,383c-5.12,0-8.533-3.413-8.533-8.533c0-37.547-30.72-68.267-68.267-68.267
			c-5.12,0-8.533-3.413-8.533-8.533s3.413-8.533,8.533-8.533c46.933,0,85.333,38.4,85.333,85.333
			C144.067,379.587,140.653,383,135.533,383z"/>
		<path style="fill:#FFE100;" d="M374.467,144.067c-5.12,0-8.533-3.413-8.533-8.533c0-46.933,38.4-85.333,85.333-85.333
			c5.12,0,8.533,3.413,8.533,8.533s-3.413,8.533-8.533,8.533c-37.547,0-68.267,30.72-68.267,68.267
			C383,140.653,379.587,144.067,374.467,144.067z"/>
		<path style="fill:#FFE100;" d="M374.467,263.533c-5.12,0-8.533-3.413-8.533-8.533c0-46.933,38.4-85.333,85.333-85.333
			c5.12,0,8.533,3.413,8.533,8.533c0,5.12-3.413,8.533-8.533,8.533C413.72,186.733,383,217.453,383,255
			C383,260.12,379.587,263.533,374.467,263.533z"/>
		<path style="fill:#FFE100;" d="M374.467,383c-5.12,0-8.533-3.413-8.533-8.533c0-46.933,38.4-85.333,85.333-85.333
			c5.12,0,8.533,3.413,8.533,8.533s-3.413,8.533-8.533,8.533C413.72,306.2,383,336.92,383,374.467
			C383,379.587,379.587,383,374.467,383z"/>
		<path style="fill:#FFE100;" d="M334.36,400.067H175.64c-7.68,0-14.507-6.827-14.507-14.507V7.533h187.733V385.56
			C348.867,393.24,342.04,400.067,334.36,400.067"/>
	</g>
	<path style="fill:#FFFFFF;" d="M161.133,385.56V7.533h-25.6V385.56c0,7.68,6.827,14.507,14.507,14.507h25.6
		C167.96,400.067,161.133,393.24,161.133,385.56"/>
	<path style="fill:#FFA800;" d="M348.867,7.533V385.56c0,7.68-6.827,14.507-14.507,14.507h25.6c7.68,0,14.507-6.827,14.507-14.507
		V7.533H348.867z"/>
	<path style="fill:#E4667F;" d="M272.067,84.333c0,23.893-13.653,42.667-29.867,42.667s-29.867-18.773-29.867-42.667
		s13.653-42.667,29.867-42.667S272.067,60.44,272.067,84.333"/>
	<path style="fill:#DD3859;" d="M255,41.667c-2.56,0-5.12,0-7.68,0.853c14.507,3.413,24.747,20.48,24.747,41.813
		s-10.24,38.4-24.747,41.813C249.88,127,252.44,127,255,127c23.893,0,42.667-18.773,42.667-42.667S278.893,41.667,255,41.667"/>
	<path style="fill:#FFA800;" d="M272.067,203.8c0,23.893-13.653,42.667-29.867,42.667s-29.867-18.773-29.867-42.667
		s13.653-42.667,29.867-42.667S272.067,179.907,272.067,203.8"/>
	<path style="fill:#FF8800;" d="M255,161.133c-2.56,0-5.12,0-7.68,0.853c13.653,3.413,24.747,21.333,24.747,41.813
		s-10.24,38.4-24.747,41.813c2.56,0.853,5.12,0.853,7.68,0.853c23.893,0,42.667-18.773,42.667-42.667S278.893,161.133,255,161.133"
		/>
	<path style="fill:#00DA6C;" d="M272.067,323.267c0,23.893-13.653,42.667-29.867,42.667s-29.867-18.773-29.867-42.667
		c0-23.893,13.653-42.667,29.867-42.667S272.067,299.373,272.067,323.267"/>
	<path style="fill:#00AD55;" d="M255,280.6c-2.56,0-5.12,0-7.68,0.853c13.653,3.413,24.747,21.333,24.747,41.813
		s-10.24,38.4-24.747,41.813c2.56,0.853,5.12,0.853,7.68,0.853c23.893,0,42.667-18.773,42.667-42.667
		C297.667,299.373,278.893,280.6,255,280.6"/>
	<path d="M297.667,511h-85.333v-59.733h85.333V511z M229.4,493.933h51.2v-25.6h-51.2V493.933z"/>
	<path d="M359.96,408.6H150.04c-12.8,0-23.04-10.24-23.04-23.04V-1h256v386.56C383,398.36,372.76,408.6,359.96,408.6z
		 M144.067,16.067V385.56c0,3.413,2.56,5.973,5.973,5.973h209.92c3.413,0,5.973-2.56,5.973-5.973V16.067H144.067z"/>
	<path d="M408.6,16.067H101.4c-5.12,0-8.533-3.413-8.533-8.533S96.28-1,101.4-1h307.2c5.12,0,8.533,3.413,8.533,8.533
		S413.72,16.067,408.6,16.067z"/>
	<path d="M255,135.533c-28.16,0-51.2-23.04-51.2-51.2s23.04-51.2,51.2-51.2s51.2,23.04,51.2,51.2S283.16,135.533,255,135.533z
		 M255,50.2c-18.773,0-34.133,15.36-34.133,34.133s15.36,34.133,34.133,34.133s34.133-15.36,34.133-34.133S273.773,50.2,255,50.2z"
		/>
	<path d="M255,255c-28.16,0-51.2-23.04-51.2-51.2s23.04-51.2,51.2-51.2s51.2,23.04,51.2,51.2S283.16,255,255,255z M255,169.667
		c-18.773,0-34.133,15.36-34.133,34.133s15.36,34.133,34.133,34.133s34.133-15.36,34.133-34.133S273.773,169.667,255,169.667z"/>
	<path d="M255,374.467c-28.16,0-51.2-23.04-51.2-51.2c0-28.16,23.04-51.2,51.2-51.2s51.2,23.04,51.2,51.2
		C306.2,351.427,283.16,374.467,255,374.467z M255,289.133c-18.773,0-34.133,15.36-34.133,34.133S236.227,357.4,255,357.4
		s34.133-15.36,34.133-34.133S273.773,289.133,255,289.133z"/>
	<path d="M135.533,135.533c-5.12,0-8.533-3.413-8.533-8.533c0-37.547-30.72-68.267-68.267-68.267c-5.12,0-8.533-3.413-8.533-8.533
		s3.413-8.533,8.533-8.533c46.933,0,85.333,38.4,85.333,85.333C144.067,132.12,140.653,135.533,135.533,135.533z"/>
	<path d="M135.533,255c-5.12,0-8.533-3.413-8.533-8.533c0-37.547-30.72-68.267-68.267-68.267c-5.12,0-8.533-3.413-8.533-8.533
		c0-5.12,3.413-8.533,8.533-8.533c46.933,0,85.333,38.4,85.333,85.333C144.067,251.587,140.653,255,135.533,255z"/>
	<path d="M135.533,374.467c-5.12,0-8.533-3.413-8.533-8.533c0-37.547-30.72-68.267-68.267-68.267c-5.12,0-8.533-3.413-8.533-8.533
		c0-5.12,3.413-8.533,8.533-8.533c46.933,0,85.333,38.4,85.333,85.333C144.067,371.053,140.653,374.467,135.533,374.467z"/>
	<path d="M374.467,135.533c-5.12,0-8.533-3.413-8.533-8.533c0-46.933,38.4-85.333,85.333-85.333c5.12,0,8.533,3.413,8.533,8.533
		s-3.413,8.533-8.533,8.533C413.72,58.733,383,89.453,383,127C383,132.12,379.587,135.533,374.467,135.533z"/>
	<path d="M374.467,255c-5.12,0-8.533-3.413-8.533-8.533c0-46.933,38.4-85.333,85.333-85.333c5.12,0,8.533,3.413,8.533,8.533
		c0,5.12-3.413,8.533-8.533,8.533C413.72,178.2,383,208.92,383,246.467C383,251.587,379.587,255,374.467,255z"/>
	<path d="M374.467,374.467c-5.12,0-8.533-3.413-8.533-8.533c0-46.933,38.4-85.333,85.333-85.333c5.12,0,8.533,3.413,8.533,8.533
		c0,5.12-3.413,8.533-8.533,8.533c-37.547,0-68.267,30.72-68.267,68.267C383,371.053,379.587,374.467,374.467,374.467z"/>
	<path d="M297.667,468.333h-85.333c-9.387,0-17.067-7.68-17.067-17.067v-59.733h119.467v59.733
		C314.733,460.653,307.053,468.333,297.667,468.333z M212.333,408.6v42.667h85.333V408.6H212.333z"/>
</g>
</svg>